<svg xmlns="http://www.w3.org/2000/svg" version="1.1" xmlns:xlink="http://www.w3.org/1999/xlink" xmlns:svgjs="http://svgjs.dev/svgjs" width="2000" height="2293" viewBox="0 0 2000 2293"><g transform="matrix(1,0,0,1,-0.41615272782075863,-4.0800711743770535)"><svg viewBox="0 0 245 281" data-background-color="#ffffff" preserveAspectRatio="xMidYMid meet" height="2293" width="2000" xmlns="http://www.w3.org/2000/svg" xmlns:xlink="http://www.w3.org/1999/xlink"><g id="tight-bounds" transform="matrix(1,0,0,1,0.05097870915804492,0.4999999999999716)"><svg viewBox="0 0 244.89769055229868 280" height="280" width="244.89769055229868"><g><svg viewBox="0 0 278.2696 318.1552583214782" height="280" width="244.89769055229868"><g><svg viewBox="0 0 278.2696 318.1552583214782" height="318.1552583214782" width="278.2696"><g id="textblocktransform"><svg viewBox="0 0 278.2696 318.1552583214782" height="318.1552583214782" width="278.2696" id="textblock"><g><svg viewBox="0 0 278.2696 278.2696" height="278.2696" width="278.2696"><g transform="matrix(1,0,0,1,110.02141574702054,89.94321971048299)"><svg viewBox="0 0 58.22676850595894 98.38316057903405" height="98.38316057903405" width="58.22676850595894"><g id="icon-0"><svg xmlns="http://www.w3.org/2000/svg" xmlns:xlink="http://www.w3.org/1999/xlink" version="1.1" x="0" y="0" viewBox="21.3 0.5 58 98" enable-background="new 0 0 100 100" xml:space="preserve" height="98.38316057903405" width="58.22676850595894" class="icon-jxe-0" data-fill-palette-color="accent" id="jxe-0"><path fill="#e9de2c" d="M69.3 0.5H31.3C25.8 0.5 21.3 5 21.3 10.5V88.5C21.3 94 25.8 98.5 31.3 98.5H69.3C74.8 98.5 79.3 94 79.3 88.5V10.5C79.3 5 74.8 0.5 69.3 0.5M50 93.2C47.3 93.2 45 91 45 88.2 45 85.5 47.2 83.2 50 83.2S55 85.4 55 88.2 52.7 93.2 50 93.2M71.3 79.5H29.3V13.5H71.3z" data-fill-palette-color="accent"></path></svg></g></svg></g><g id="text-0"><path d="M31.134 95.232l-4.225 13.14-5.675-1.824 0.553-1.721-15.558-5.002-0.553 1.721-5.676-1.824 4.224-13.141 5.676 1.825-0.556 1.731 15.557 5.001 0.557-1.731z" fill="#067627" data-fill-palette-color="primary"></path><path d="M72.358 44.113c-3.662 2.746-7.181 3.933-10.557 3.561-3.385-0.373-6.609-2.602-9.672-6.686v0c-5.857-7.812-4.988-14.565 2.607-20.26v0c1.842-1.381 3.718-2.44 5.628-3.178 1.919-0.736 3.469-1.124 4.649-1.164v0l5.447 7.265-6.972 5.228-1.566-2.089c-0.552-0.737-1.126-1.157-1.72-1.261-0.59-0.099-1.216 0.099-1.877 0.594v0c-0.656 0.491-1.019 1.034-1.089 1.629-0.066 0.6 0.177 1.268 0.729 2.005v0l6.58 8.777c0.552 0.737 1.124 1.155 1.714 1.253 0.59 0.099 1.213-0.097 1.869-0.589v0c0.661-0.496 1.027-1.041 1.097-1.635 0.071-0.594-0.17-1.26-0.723-1.996v0l-1.767-2.357 6.973-5.228 5.641 7.525c-0.386 1.144-1.193 2.523-2.419 4.138-1.222 1.61-2.745 3.099-4.572 4.468z" fill="#067627" data-fill-palette-color="primary"></path><path d="M149.694 15.654l1.605-0.001 0.002 5.962-9.598 0.004-0.001-2.468c-0.528 0.772-1.272 1.463-2.234 2.072-0.954 0.603-2.122 0.905-3.503 0.906v0c-1.815 0.001-3.244-0.483-4.287-1.451-1.043-0.968-1.565-2.335-1.566-4.103v0c-0.002-4.577 3.887-6.928 11.668-7.053v0c-0.075-0.826-0.39-1.388-0.946-1.686-0.562-0.304-1.507-0.456-2.834-0.455v0c-1.09 0-2.261 0.116-3.514 0.346-1.246 0.231-2.39 0.539-3.432 0.926v0l-0.003-6.683c1.286-0.319 2.681-0.573 4.184-0.764 1.496-0.197 2.959-0.296 4.388-0.296v0c3.609-0.001 6.189 0.651 7.74 1.957 1.551 1.313 2.327 3.337 2.328 6.073v0zM141.7 13.341l0-0.223c-1.09 0-1.93 0.146-2.519 0.437-0.596 0.291-0.893 0.776-0.893 1.453v0c0 0.413 0.129 0.745 0.386 0.995 0.251 0.257 0.606 0.386 1.067 0.386v0c0.63 0 1.114-0.268 1.452-0.803 0.338-0.528 0.507-1.277 0.507-2.245z" fill="#067627" data-fill-palette-color="primary"></path><path d="M207.579 43.58c-2.497-1.758-4.626-3.85-6.389-6.274v0l3.093-4.393 4.817 3.391-0.205 0.291c-0.67 0.952-0.402 1.853 0.805 2.703v0c1.069 0.752 1.86 0.763 2.375 0.032v0c0.281-0.399 0.339-0.805 0.174-1.218-0.174-0.412-0.596-0.958-1.268-1.639v0l-1.294-1.32c-2.722-2.744-3.038-5.6-0.948-8.568v0c1.212-1.722 2.807-2.599 4.784-2.631 1.983-0.028 4.081 0.737 6.296 2.296v0c2.475 1.743 4.272 3.629 5.393 5.66v0l-2.912 4.136-4.518-3.181 0.211-0.299c0.281-0.399 0.36-0.794 0.238-1.186-0.118-0.398-0.434-0.778-0.948-1.14v0c-0.991-0.698-1.711-0.728-2.159-0.091v0c-0.234 0.332-0.277 0.687-0.129 1.064 0.152 0.372 0.539 0.893 1.161 1.563v0l1.46 1.525c1.523 1.577 2.341 3.085 2.454 4.523 0.11 1.444-0.336 2.877-1.338 4.3v0c-1.271 1.805-2.868 2.738-4.791 2.8-1.927 0.067-4.048-0.714-6.362-2.344z" fill="#067627" data-fill-palette-color="primary"></path><path d="M249.797 100.06c-1.164-3.237-1.227-6.071-0.188-8.503 1.046-2.434 3.196-4.237 6.453-5.407v0c3.262-1.173 6.068-1.154 8.418 0.058 2.357 1.21 4.117 3.434 5.281 6.671v0c1.157 3.218 1.154 5.838-0.01 7.861-1.162 2.03-2.986 3.492-5.471 4.386v0l-2.456 0.883-3.985-11.076-0.21 0.076c-0.841 0.303-1.373 0.774-1.595 1.415-0.214 0.645-0.111 1.551 0.308 2.717v0c0.5 1.389 1.076 2.671 1.729 3.847 0.655 1.182 1.311 2.184 1.966 3.006v0l-5.466 1.966c-0.72-0.641-1.535-1.668-2.447-3.081-0.903-1.409-1.678-3.016-2.327-4.819zM261.595 93.582l1.427 3.966 0.411-0.148c0.777-0.28 1.275-0.646 1.494-1.098 0.225-0.455 0.218-1.014-0.02-1.677v0c-0.236-0.656-0.592-1.086-1.069-1.289-0.47-0.205-1.08-0.173-1.832 0.098v0z" fill="#067627" data-fill-palette-color="primary"></path><path d="M11.829 189.359l-4.315-13.377 5.77-1.862 0.568 1.759 15.843-5.11-0.568-1.759 5.771-1.861 4.315 13.377-5.771 1.862-0.57-1.769-15.843 5.11 0.571 1.769z" fill="#067627" data-fill-palette-color="primary"></path><path d="M59.597 251.143c-3.733-2.798-5.9-5.902-6.5-9.313-0.604-3.406 0.655-7.192 3.778-11.359v0c5.957-7.949 12.801-9.026 20.533-3.232v0c1.875 1.405 3.446 2.938 4.715 4.599 1.268 1.661 2.093 3.062 2.474 4.202v0l-5.549 7.404-7.104-5.323 1.596-2.13c0.564-0.753 0.811-1.432 0.739-2.035-0.068-0.609-0.438-1.166-1.11-1.67v0c-0.672-0.503-1.31-0.702-1.914-0.596-0.6 0.1-1.182 0.527-1.746 1.28v0l-6.694 8.933c-0.564 0.753-0.811 1.432-0.738 2.036 0.068 0.609 0.438 1.166 1.11 1.669v0c0.672 0.503 1.31 0.702 1.913 0.596 0.6-0.1 1.182-0.527 1.747-1.28v0l1.796-2.398 7.104 5.323-5.749 7.673c-1.223-0.062-2.799-0.46-4.728-1.195-1.929-0.735-3.82-1.796-5.673-3.184z" fill="#067627" data-fill-palette-color="primary"></path><path d="M149.864 270.785l1.625 0-0.003 6.064-9.76-0.005 0.001-2.519c-0.542 0.792-1.301 1.496-2.276 2.112-0.975 0.616-2.164 0.923-3.565 0.922v0c-1.848-0.001-3.304-0.496-4.367-1.485-1.056-0.982-1.583-2.374-1.582-4.175v0c0.002-4.658 3.958-7.05 11.866-7.175v0c-0.067-0.833-0.385-1.405-0.954-1.717-0.569-0.305-1.53-0.458-2.884-0.458v0c-1.11-0.001-2.302 0.114-3.576 0.344-1.266 0.236-2.431 0.551-3.494 0.943v0l0.003-6.805c1.307-0.318 2.726-0.574 4.256-0.77 1.53-0.202 3.023-0.303 4.479-0.303v0c3.67 0.002 6.293 0.67 7.871 2.005 1.577 1.335 2.365 3.393 2.363 6.176v0zM141.73 268.414l0-0.223c-1.11-0.001-1.967 0.148-2.57 0.445-0.603 0.291-0.904 0.782-0.904 1.473v0c0 0.42 0.128 0.758 0.385 1.016 0.257 0.264 0.623 0.396 1.097 0.396v0c0.636 0 1.128-0.27 1.473-0.812 0.346-0.548 0.519-1.313 0.519-2.295z" fill="#067627" data-fill-palette-color="primary"></path><path d="M219.811 252.072c-2.537 1.783-5.27 3.1-8.198 3.95v0l-3.148-4.479 4.894-3.44 0.216 0.307c0.681 0.969 1.64 1.02 2.875 0.152v0c1.086-0.763 1.366-1.519 0.84-2.266v0c-0.284-0.404-0.652-0.597-1.102-0.579-0.46 0.017-1.132 0.233-2.016 0.647v0l-1.705 0.789c-3.56 1.658-6.403 0.975-8.529-2.049v0c-1.234-1.756-1.527-3.586-0.879-5.49 0.648-1.904 2.102-3.65 4.362-5.239v0c2.52-1.772 4.945-2.843 7.275-3.214v0l2.955 4.204-4.595 3.23-0.21-0.299c-0.284-0.404-0.636-0.616-1.055-0.636-0.419-0.02-0.892 0.155-1.419 0.525v0c-1.008 0.709-1.286 1.384-0.834 2.027v0c0.241 0.343 0.568 0.507 0.978 0.491 0.411-0.016 1.047-0.206 1.908-0.571v0l1.953-0.877c2.036-0.918 3.764-1.185 5.185-0.801 1.419 0.393 2.638 1.316 3.658 2.767v0c1.289 1.834 1.634 3.685 1.036 5.554-0.604 1.873-2.085 3.639-4.445 5.297z" fill="#067627" data-fill-palette-color="primary"></path><path d="M269.862 185.46c-1.19 3.292-2.984 5.556-5.382 6.791-2.402 1.227-5.258 1.242-8.57 0.045v0c-3.318-1.199-5.504-3.038-6.56-5.515-1.06-2.486-0.994-5.374 0.196-8.666v0c1.181-3.267 2.887-5.317 5.119-6.152 2.229-0.828 4.608-0.786 7.135 0.128v0l2.503 0.905-4.075 11.27 0.21 0.076c0.853 0.308 1.577 0.279 2.171-0.089 0.592-0.362 1.101-1.132 1.526-2.311v0c0.513-1.42 0.895-2.805 1.146-4.154 0.25-1.349 0.385-2.557 0.403-3.623v0l5.568 2.013c0.147 0.968 0.119 2.3-0.084 3.998-0.21 1.695-0.645 3.457-1.306 5.284zM256.398 182.882l1.46-4.041-0.41-0.148c-0.79-0.285-1.42-0.323-1.893-0.112-0.472 0.211-0.829 0.651-1.071 1.319v0c-0.244 0.675-0.246 1.247-0.005 1.716 0.235 0.466 0.737 0.839 1.508 1.117v0z" fill="#067627" data-fill-palette-color="primary"></path><path d="M1.919 139.049c0-6.07 4.921-10.991 10.992-10.992 6.07 0 10.991 4.921 10.991 10.992 0 6.07-4.921 10.991-10.991 10.991-6.07 0-10.991-4.921-10.992-10.991z" fill="#067627" data-fill-palette-color="primary"></path><path d="M256.287 139.049c0-6.07 4.921-10.991 10.991-10.992 6.07 0 10.991 4.921 10.992 10.992 0 6.07-4.921 10.991-10.992 10.991-6.07 0-10.991-4.921-10.991-10.991z" fill="#067627" data-fill-palette-color="primary"></path></g><g id="text-1"></g></svg></g><g transform="matrix(1,0,0,1,53.1494936,296.09272000000004)"><svg viewBox="0 0 171.97061280000003 22.062538321478186" height="22.062538321478186" width="171.97061280000003"><g transform="matrix(1,0,0,1,0,0)"><svg width="171.97061280000003" viewBox="1.8 -37.1 381.51 48.95" height="22.062538321478186" data-palette-color="#067627"><path d="M12.25 0.6Q7.5 0.6 4.65-2.4 1.8-5.4 1.8-10.45L1.8-10.45Q1.8-14 3.33-16.93 4.85-19.85 7.48-21.53 10.1-23.2 13.35-23.2L13.35-23.2Q14.75-23.2 16.05-23 17.35-22.8 18.18-22.58 19-22.35 19.2-22.25L19.2-22.25 19.35-21.9Q19.3-21.65 19.07-20.73 18.85-19.8 18.6-18.28 18.35-16.75 18.3-15L18.3-15 16.25-14.85 16.25-16.4Q16.25-18.25 15.13-19.38 14-20.5 12.15-20.5L12.15-20.5Q9.1-20.5 7.45-18.32 5.8-16.15 5.8-12.15L5.8-12.15Q5.8-7.8 7.63-5.28 9.45-2.75 12.6-2.75L12.6-2.75Q13.85-2.75 15.1-3.13 16.35-3.5 17.2-3.88 18.05-4.25 18.25-4.4L18.25-4.4 18.55-4.3 19.1-2.75Q18.75-2.5 17.57-1.7 16.4-0.9 14.88-0.15 13.35 0.6 12.25 0.6L12.25 0.6ZM25.7-17.35Q25.7-20.05 23.85-20.05L23.85-20.05Q23.5-20.05 23.1-19.98 22.7-19.9 22.6-19.85L22.6-19.85 22.8-21.7Q24.75-22 27-22.53 29.25-23.05 29.95-23.2L29.95-23.2 30.25-22.6Q29.75-21.3 29.35-16.7 28.95-12.1 28.95-7.75L28.95-7.75Q28.95-2.85 32.95-2.85L32.95-2.85Q34.45-2.85 35.75-3.58 37.05-4.3 39-5.7L39-5.7 39-17.3Q39-18.8 38.45-19.4 37.9-20 36.5-20L36.5-20 35.3-19.95 35.5-21.75Q37.7-22.05 40.1-22.55 42.5-23.05 43.2-23.2L43.2-23.2 43.5-22.6Q43.05-21.45 42.72-16.35 42.4-11.25 42.4-5.25L42.4-5.25Q42.4-4.15 42.95-3.55 43.5-2.95 44.45-2.95L44.45-2.95Q45.15-2.95 45.82-3.23 46.5-3.5 46.92-3.8 47.35-4.1 47.45-4.2L47.45-4.2 48.15-3.4Q47.95-3.1 47.22-2.15 46.5-1.2 45.52-0.3 44.55 0.6 43.8 0.6L43.8 0.6Q39.75 0.6 39.35-3.45L39.35-3.45 39.1-3.55Q36.7-1.7 34.77-0.55 32.85 0.6 32.15 0.6L32.15 0.6Q28.95 0.6 27.22-0.9 25.5-2.4 25.5-5.2L25.5-5.2 25.7-17.35ZM56.8 0.6Q55.2 0.6 53.87 0.38 52.55 0.15 51.8-0.1 51.05-0.35 50.85-0.45L50.85-0.45 50.7-0.8Q50.85-1.55 51.05-3.9 51.25-6.25 51.3-7.5L51.3-7.5 53.05-7.75Q53.05-4.45 54.15-3.1 55.25-1.75 57.9-1.75L57.9-1.75Q59.8-1.75 61.1-2.6 62.4-3.45 62.4-4.7L62.4-4.7Q62.4-5.95 61.22-6.98 60.05-8 56.6-9.85L56.6-9.85Q53.75-11.3 52.45-12.8 51.15-14.3 51.15-16.1L51.15-16.1Q51.15-18.1 52.35-19.73 53.55-21.35 55.65-22.28 57.75-23.2 60.35-23.2L60.35-23.2Q61.55-23.2 62.65-23.03 63.75-22.85 64.45-22.65 65.15-22.45 65.34-22.4L65.34-22.4 65.45-22.15Q65.34-21.65 65-19.88 64.65-18.1 64.5-16.05L64.5-16.05 62.65-15.9Q62.65-16.05 62.7-16.5 62.75-16.95 62.75-17.35L62.75-17.35Q62.75-19.15 61.77-19.98 60.8-20.8 58.65-20.8L58.65-20.8Q56.95-20.8 55.77-20 54.6-19.2 54.6-18.05L54.6-18.05Q54.6-16.85 55.62-15.8 56.65-14.75 58.95-13.55L58.95-13.55Q63-11.4 64.47-9.93 65.95-8.45 65.95-6.55L65.95-6.55Q65.95-4.65 64.7-3 63.45-1.35 61.32-0.38 59.2 0.6 56.8 0.6L56.8 0.6ZM78.64 0.6Q75.24 0.6 73.84-0.78 72.44-2.15 72.44-5.45L72.44-5.45 72.44-17.75Q72.44-19.1 71.84-19.65 71.24-20.2 69.59-20.25L69.59-20.25 69.39-20.55 69.64-22.05Q71.09-22.75 72.47-23.78 73.84-24.8 74.72-25.58 75.59-26.35 75.84-26.6L75.84-26.6 76.84-26.2Q76.79-25.95 76.69-25 76.59-24.05 76.44-22.45L76.44-22.45 83.79-22.6 83.94-22.45 83.49-19.8 76.24-19.95Q75.89-14.45 75.89-7.45L75.89-7.45Q75.89-4.9 76.77-3.85 77.64-2.8 79.79-2.8L79.79-2.8Q80.54-2.8 81.29-3 82.04-3.2 82.54-3.43 83.04-3.65 83.19-3.7L83.19-3.7 83.69-2.4Q83.39-2.15 82.42-1.45 81.44-0.75 80.32-0.08 79.19 0.6 78.64 0.6L78.64 0.6ZM96.34 0.6Q93.49 0.6 91.29-0.8 89.09-2.2 87.87-4.73 86.64-7.25 86.64-10.5L86.64-10.5Q86.64-14 88.17-16.93 89.69-19.85 92.34-21.53 94.99-23.2 98.24-23.2L98.24-23.2Q101.04-23.2 103.27-21.8 105.49-20.4 106.72-17.88 107.94-15.35 107.94-12.1L107.94-12.1Q107.94-8.6 106.42-5.68 104.89-2.75 102.24-1.07 99.59 0.6 96.34 0.6L96.34 0.6ZM97.74-1.85Q100.54-1.85 102.19-4.13 103.84-6.4 103.84-10.3L103.84-10.3Q103.84-13.25 102.94-15.58 102.04-17.9 100.42-19.2 98.79-20.5 96.74-20.5L96.74-20.5Q93.94-20.5 92.29-18.2 90.64-15.9 90.64-11.95L90.64-11.95Q90.64-9 91.54-6.7 92.44-4.4 94.04-3.13 95.64-1.85 97.74-1.85L97.74-1.85ZM125.99-1.45Q127.49-1.85 128.14-2.63 128.79-3.4 128.79-4.7L128.79-4.7 128.99-14.6Q128.99-17.1 127.91-18.45 126.84-19.8 124.84-19.8L124.84-19.8Q123.24-19.8 121.59-18.98 119.94-18.15 118.69-17.2L118.69-17.2Q118.24-6.85 118.24-4.9L118.24-4.9Q118.24-3.35 118.64-2.73 119.04-2.1 120.04-2.1L120.04-2.1Q120.59-2.1 121.09-2.15 121.59-2.2 121.79-2.2L121.79-2.2 121.89-2 121.44 0.15Q120.99 0.1 119.69 0.05 118.39 0 116.89 0L116.89 0Q115.24 0 113.84 0.05 112.44 0.1 111.94 0.1L111.94 0.1 112.24-1.95Q113.69-2.1 114.26-2.7 114.84-3.3 114.84-4.7L114.84-4.7 114.84-16.9Q114.84-18.6 114.29-19.28 113.74-19.95 112.39-19.95L112.39-19.95 111.84-19.95 111.69-20.15 111.84-21.8Q113.99-22.15 116.11-22.63 118.24-23.1 118.84-23.25L118.84-23.25 119.14-22.85Q119.04-22.55 118.84-21.58 118.64-20.6 118.59-19.55L118.59-19.55 118.69-19.4Q124.29-23.2 126.04-23.2L126.04-23.2Q128.44-23.2 130.09-22.18 131.74-21.15 132.44-19.25L132.44-19.25Q134.24-20.55 136.49-21.88 138.74-23.2 139.99-23.2L139.99-23.2Q143.14-23.2 144.99-21.45 146.84-19.7 146.84-16.75L146.84-16.75Q146.84-16.25 146.54-12.15L146.54-12.15Q146.14-6.95 146.14-4.9L146.14-4.9Q146.14-3.35 146.54-2.73 146.94-2.1 147.94-2.1L147.94-2.1Q148.49-2.1 148.99-2.15 149.49-2.2 149.69-2.2L149.69-2.2 149.79-2 149.34 0.15Q148.89 0.1 147.59 0.05 146.29 0 144.79 0L144.79 0Q143.49 0 141.91 0.13 140.34 0.25 139.84 0.3L139.84 0.3 140.09-1.75Q141.54-2 142.14-2.65 142.74-3.3 142.74-4.7L142.74-4.7 142.94-14.6Q142.94-17.1 141.86-18.45 140.79-19.8 138.79-19.8L138.79-19.8Q136.19-19.8 132.74-17.3L132.74-17.3 132.19-4.9Q132.19-3.45 132.59-2.78 132.99-2.1 133.94-2.1L133.94-2.1Q134.49-2.1 134.99-2.15 135.49-2.2 135.69-2.2L135.69-2.2 135.79-2 135.39 0.15Q134.94 0.1 133.69 0.05 132.44 0 130.94 0L130.94 0Q129.64 0 127.96 0.25 126.29 0.5 125.79 0.6L125.79 0.6 125.99-1.45ZM173.48 0.6Q168.73 0.6 165.88-2.4 163.03-5.4 163.03-10.45L163.03-10.45Q163.03-14 164.56-16.93 166.08-19.85 168.71-21.53 171.33-23.2 174.58-23.2L174.58-23.2Q175.98-23.2 177.28-23 178.58-22.8 179.41-22.58 180.23-22.35 180.43-22.25L180.43-22.25 180.58-21.9Q180.53-21.65 180.31-20.73 180.08-19.8 179.83-18.28 179.58-16.75 179.53-15L179.53-15 177.48-14.85 177.48-16.4Q177.48-18.25 176.36-19.38 175.23-20.5 173.38-20.5L173.38-20.5Q170.33-20.5 168.68-18.32 167.03-16.15 167.03-12.15L167.03-12.15Q167.03-7.8 168.86-5.28 170.68-2.75 173.83-2.75L173.83-2.75Q175.08-2.75 176.33-3.13 177.58-3.5 178.43-3.88 179.28-4.25 179.48-4.4L179.48-4.4 179.78-4.3 180.33-2.75Q179.98-2.5 178.81-1.7 177.63-0.9 176.11-0.15 174.58 0.6 173.48 0.6L173.48 0.6ZM200.53 0.6Q196.48 0.6 196.08-3.45L196.08-3.45 195.88-3.5Q194.08-1.7 192.61-0.65 191.13 0.4 190.38 0.4L190.38 0.4Q187.58 0.4 185.78-1.35 183.98-3.1 183.98-5.8L183.98-5.8Q183.98-7.25 184.71-8.35 185.43-9.45 186.63-9.8L186.63-9.8 196.13-12.4 196.18-14.6Q196.18-17.1 195.03-18.5 193.88-19.9 191.78-19.9L191.78-19.9Q190.38-19.9 188.83-19.25 187.28-18.6 185.78-17.4L185.78-17.4 185.53-17.55 184.93-19.7Q187.28-21.05 189.66-22.13 192.03-23.2 193.08-23.2L193.08-23.2Q196.33-23.2 198.18-21.5 200.03-19.8 200.03-16.75L200.03-16.75Q200.03-15.65 199.68-12.25L199.68-12.25Q199.13-6.75 199.13-5.25L199.13-5.25Q199.13-4.15 199.68-3.55 200.23-2.95 201.18-2.95L201.18-2.95Q201.98-2.95 202.83-3.33 203.68-3.7 204.18-4.2L204.18-4.2 204.88-3.4Q204.13-2.15 202.96-0.98 201.78 0.2 200.53 0.6L200.53 0.6ZM191.23-3Q192.18-3 193.46-3.68 194.73-4.35 195.78-5.4L195.78-5.4 196.03-10.5 189.23-8.45Q187.78-8 187.78-6.35L187.78-6.35Q187.78-4.9 188.75-3.95 189.73-3 191.23-3L191.23-3ZM213.78 0.6Q212.18 0.6 210.85 0.38 209.53 0.15 208.78-0.1 208.03-0.35 207.83-0.45L207.83-0.45 207.68-0.8Q207.83-1.55 208.03-3.9 208.23-6.25 208.28-7.5L208.28-7.5 210.03-7.75Q210.03-4.45 211.13-3.1 212.23-1.75 214.88-1.75L214.88-1.75Q216.78-1.75 218.08-2.6 219.38-3.45 219.38-4.7L219.38-4.7Q219.38-5.95 218.2-6.98 217.03-8 213.58-9.85L213.58-9.85Q210.73-11.3 209.43-12.8 208.13-14.3 208.13-16.1L208.13-16.1Q208.13-18.1 209.33-19.73 210.53-21.35 212.63-22.28 214.73-23.2 217.33-23.2L217.33-23.2Q218.53-23.2 219.63-23.03 220.73-22.85 221.43-22.65 222.13-22.45 222.33-22.4L222.33-22.4 222.43-22.15Q222.33-21.65 221.98-19.88 221.63-18.1 221.48-16.05L221.48-16.05 219.63-15.9Q219.63-16.05 219.68-16.5 219.73-16.95 219.73-17.35L219.73-17.35Q219.73-19.15 218.75-19.98 217.78-20.8 215.63-20.8L215.63-20.8Q213.93-20.8 212.75-20 211.58-19.2 211.58-18.05L211.58-18.05Q211.58-16.85 212.6-15.8 213.63-14.75 215.93-13.55L215.93-13.55Q219.98-11.4 221.45-9.93 222.93-8.45 222.93-6.55L222.93-6.55Q222.93-4.65 221.68-3 220.43-1.35 218.3-0.38 216.18 0.6 213.78 0.6L213.78 0.6ZM237.63 0.6Q234.53 0.6 232.13-0.78 229.73-2.15 228.43-4.67 227.13-7.2 227.13-10.45L227.13-10.45Q227.13-13.8 228.65-16.75 230.18-19.7 232.73-21.45 235.28-23.2 238.18-23.2L238.18-23.2Q241.83-23.2 243.73-21.35 245.63-19.5 245.63-15.95L245.63-15.95Q245.63-14.5 245.33-13.5L245.33-13.5 244.68-12.9 230.88-12.9Q230.83-8.05 232.8-5.43 234.78-2.8 238.33-2.8L238.33-2.8Q241.13-2.8 244.43-4.35L244.43-4.35 244.73-4.25 245.28-2.8Q243.48-1.5 241.3-0.45 239.13 0.6 237.63 0.6L237.63 0.6ZM231.08-14.75L240.13-15.2Q240.88-15.3 241.13-15.55 241.38-15.8 241.38-16.55L241.38-16.55Q241.38-18.55 240.3-19.6 239.23-20.65 237.23-20.65L237.23-20.65Q234.88-20.65 233.2-19.05 231.53-17.45 231.08-14.75L231.08-14.75ZM259.87 11.85L260.12 9.9Q261.22 9.75 261.75 9.45 262.27 9.15 262.47 8.45 262.67 7.75 262.67 6.3L262.67 6.3Q262.67 4.2 262.72 2.7L262.72 2.7 262.77-2 262.77-16.9Q262.77-18.6 262.22-19.28 261.67-19.95 260.32-19.95L260.32-19.95 259.77-19.95 259.62-20.15 259.77-21.8Q261.92-22.15 264.05-22.63 266.17-23.1 266.77-23.25L266.77-23.25 267.07-22.85Q267.02-22.6 266.85-21.78 266.67-20.95 266.57-20.15L266.57-20.15 266.77-19.8Q271.47-23.05 272.57-23.05L272.57-23.05Q275.42-23.05 277.62-21.73 279.82-20.4 281.02-18 282.22-15.6 282.22-12.5L282.22-12.5Q282.22-8.95 280.52-5.95 278.82-2.95 275.97-1.18 273.12 0.6 269.77 0.6L269.77 0.6Q268.67 0.6 267.6 0.53 266.52 0.45 266.12 0.4L266.12 0.4 266.17 5.55Q266.17 7.85 266.64 8.68 267.12 9.5 268.52 9.5L268.52 9.5 270.22 9.45 270.32 9.6 269.92 11.5 265.17 11.5Q263.37 11.5 261.85 11.65 260.32 11.8 259.87 11.85L259.87 11.85ZM271.17-2.15Q274.52-2.15 276.44-4.42 278.37-6.7 278.37-10.65L278.37-10.65Q278.37-13.15 277.5-15.2 276.62-17.25 275.1-18.45 273.57-19.65 271.77-19.65L271.77-19.65Q270.77-19.65 269.32-18.98 267.87-18.3 266.57-17.2L266.57-17.2Q266.17-10.65 266.17-3.1L266.17-3.1Q267.17-2.7 268.55-2.43 269.92-2.15 271.17-2.15L271.17-2.15ZM285.77-1.95Q287.22-2.1 287.79-2.7 288.37-3.3 288.37-4.7L288.37-4.7 288.37-31.3Q288.37-32.65 287.92-33.27 287.47-33.9 286.52-33.9L286.52-33.9 285.47-33.9 285.27-34.05 285.47-35.65Q287.17-35.85 289.32-36.27 291.47-36.7 292.87-37.1L292.87-37.1 293.17-36.45Q292.82-35.9 292.49-31.1 292.17-26.3 291.97-19.3L291.97-19.3Q297.67-23.2 299.47-23.2L299.47-23.2Q302.72-23.2 304.52-21.5 306.32-19.8 306.32-16.75L306.32-16.75Q306.32-15.75 305.97-12.15L305.97-12.15Q305.52-6.3 305.52-4.9L305.52-4.9Q305.52-3.45 305.92-2.78 306.32-2.1 307.27-2.1L307.27-2.1 309.02-2.2 309.12-2 308.72 0.15Q305.42 0 304.27 0L304.27 0Q302.27 0 299.12 0.6L299.12 0.6 299.32-1.45Q300.82-1.85 301.47-2.63 302.12-3.4 302.12-4.7L302.12-4.7 302.42-14.6Q302.42-17.1 301.34-18.45 300.27-19.8 298.27-19.8L298.27-19.8Q297.02-19.8 295.19-19 293.37-18.2 291.92-17.05L291.92-17.05Q291.77-11.45 291.77-4.9L291.77-4.9Q291.77-3.35 292.17-2.73 292.57-2.1 293.57-2.1L293.57-2.1 295.32-2.2 295.42-2 294.97 0.15Q291.52 0 290.42 0L290.42 0Q288.27 0 285.47 0.1L285.47 0.1 285.77-1.95ZM322.21 0.6Q319.36 0.6 317.16-0.8 314.96-2.2 313.74-4.73 312.51-7.25 312.51-10.5L312.51-10.5Q312.51-14 314.04-16.93 315.56-19.85 318.21-21.53 320.86-23.2 324.11-23.2L324.11-23.2Q326.91-23.2 329.14-21.8 331.36-20.4 332.59-17.88 333.81-15.35 333.81-12.1L333.81-12.1Q333.81-8.6 332.29-5.68 330.76-2.75 328.11-1.07 325.46 0.6 322.21 0.6L322.21 0.6ZM323.61-1.85Q326.41-1.85 328.06-4.13 329.71-6.4 329.71-10.3L329.71-10.3Q329.71-13.25 328.81-15.58 327.91-17.9 326.29-19.2 324.66-20.5 322.61-20.5L322.61-20.5Q319.81-20.5 318.16-18.2 316.51-15.9 316.51-11.95L316.51-11.95Q316.51-9 317.41-6.7 318.31-4.4 319.91-3.13 321.51-1.85 323.61-1.85L323.61-1.85ZM351.96-1.45Q353.46-1.85 354.11-2.63 354.76-3.4 354.76-4.7L354.76-4.7 354.96-14.6Q354.96-17.1 353.89-18.45 352.81-19.8 350.81-19.8L350.81-19.8Q349.21-19.8 347.56-18.98 345.91-18.15 344.66-17.2L344.66-17.2Q344.21-6.85 344.21-4.9L344.21-4.9Q344.21-3.35 344.61-2.73 345.01-2.1 346.01-2.1L346.01-2.1Q346.56-2.1 347.06-2.15 347.56-2.2 347.76-2.2L347.76-2.2 347.86-2 347.41 0.15Q346.96 0.1 345.66 0.05 344.36 0 342.86 0L342.86 0Q341.56 0 339.99 0.13 338.41 0.25 337.91 0.3L337.91 0.3 338.16-1.75Q339.61-2 340.21-2.65 340.81-3.3 340.81-4.7L340.81-4.7 340.81-16.9Q340.81-18.6 340.26-19.28 339.71-19.95 338.36-19.95L338.36-19.95 337.81-19.95 337.66-20.15 337.81-21.8Q339.96-22.15 342.09-22.63 344.21-23.1 344.81-23.25L344.81-23.25 345.11-22.85Q345.01-22.55 344.81-21.58 344.61-20.6 344.56-19.55L344.56-19.55 344.66-19.4Q350.36-23.2 352.01-23.2L352.01-23.2Q355.16-23.2 357.01-21.45 358.86-19.7 358.86-16.75L358.86-16.75Q358.86-16.25 358.56-12.15L358.56-12.15Q358.16-6.95 358.16-4.9L358.16-4.9Q358.16-3.45 358.56-2.78 358.96-2.1 359.91-2.1L359.91-2.1Q360.46-2.1 360.96-2.15 361.46-2.2 361.66-2.2L361.66-2.2 361.76-2 361.36 0.15Q360.91 0.1 359.66 0.05 358.41 0 356.91 0L356.91 0Q355.61 0 353.94 0.25 352.26 0.5 351.76 0.6L351.76 0.6 351.96-1.45ZM375.31 0.6Q372.21 0.6 369.81-0.78 367.41-2.15 366.11-4.67 364.81-7.2 364.81-10.45L364.81-10.45Q364.81-13.8 366.33-16.75 367.86-19.7 370.41-21.45 372.96-23.2 375.86-23.2L375.86-23.2Q379.51-23.2 381.41-21.35 383.31-19.5 383.31-15.95L383.31-15.95Q383.31-14.5 383.01-13.5L383.01-13.5 382.36-12.9 368.56-12.9Q368.51-8.05 370.48-5.43 372.46-2.8 376.01-2.8L376.01-2.8Q378.81-2.8 382.11-4.35L382.11-4.35 382.41-4.25 382.96-2.8Q381.16-1.5 378.98-0.45 376.81 0.6 375.31 0.6L375.31 0.6ZM368.76-14.75L377.81-15.2Q378.56-15.3 378.81-15.55 379.06-15.8 379.06-16.55L379.06-16.55Q379.06-18.55 377.98-19.6 376.91-20.65 374.91-20.65L374.91-20.65Q372.56-20.65 370.88-19.05 369.21-17.45 368.76-14.75L368.76-14.75Z" opacity="1" transform="matrix(1,0,0,1,0,0)" fill="#067627" class="slogan-text-1" data-fill-palette-color="secondary" id="text-1"></path></svg></g></svg></g></svg></g></svg></g></svg></g><defs></defs></svg><rect width="244.89769055229868" height="280" fill="none" stroke="none" visibility="hidden"></rect></g></svg></g></svg>